<svg xmlns="http://www.w3.org/2000/svg" id="mainsvg" width="875.17568359375" height="376.20000000000005" viewBox="-10 -10 795.6142578125 342"><defs><marker id="arrow" viewBox="0 0 10 10" refX="10" refY="5" markerWidth="5" markerHeight="5" orient="auto-start-reverse" fill="black"><path d="M 0 0 L 10 5 L 0 10 z"/></marker><filter id="shadowOLD" x="-50%" y="-50%" width="250%" height="250%"><feDropShadow flood-color="black" flood-opacity="0.3" dx="1" dy="1" stdDeviation="2"> </feDropShadow></filter><filter id="shadow-path" filterUnits="userSpaceOnUse" x="-10" y="-10" width="795.6142578125px" height="342px"><feDropShadow flood-color="black" flood-opacity="0.1" dx="1" dy="1" stdDeviation="1"> </feDropShadow></filter><filter id="shadow" filterUnits="userSpaceOnUse" x="-10" y="-10" width="895.6142578125px" height="442px"><feDropShadow flood-color="black" flood-opacity="0.1" dx="1" dy="1" stdDeviation="1"> </feDropShadow></filter></defs><rect x="-10" y="-10" width="795.6142578125" height="342" fill="#fff"/><g transform="translate(0, 0)"><rect width="49.78125" height="34" stroke="black" fill="white" stroke-width="2" transform="translate(0, 0)" rx="3"/><text fill="black" font-size="16" font-weight="normal" transform="translate(8, 8)" alignment-baseline="middle" font-family="Arial"><tspan x="0" dy="16" font-family="Arial" font-size="16" font-weight="normal">User</tspan></text></g><g transform="translate(128.880859375, 0)"><rect width="56.0234375" height="34" stroke="black" fill="white" stroke-width="2" transform="translate(0, 0)" rx="3"/><text fill="black" font-size="16" font-weight="normal" transform="translate(8, 8)" alignment-baseline="middle" font-family="Arial"><tspan x="0" dy="16" font-family="Arial" font-size="16" font-weight="normal">Menu</tspan></text></g><g transform="translate(262.7958984375, 0)"><rect width="60.46875" height="34" stroke="black" fill="white" stroke-width="2" transform="translate(0, 0)" rx="3"/><text fill="black" font-size="16" font-weight="normal" transform="translate(8, 8)" alignment-baseline="middle" font-family="Arial"><tspan x="0" dy="16" font-family="Arial" font-size="16" font-weight="normal">Select</tspan></text></g><g transform="translate(372.9208984375, 0)"><rect width="59.5703125" height="34" stroke="black" fill="white" stroke-width="2" transform="translate(0, 0)" rx="3"/><text fill="black" font-size="16" font-weight="normal" transform="translate(8, 8)" alignment-baseline="middle" font-family="Arial"><tspan x="0" dy="16" font-family="Arial" font-size="16" font-weight="normal">Match</tspan></text></g><g transform="translate(546.439453125, 0)"><rect width="72.0078125" height="34" stroke="black" fill="white" stroke-width="2" transform="translate(0, 0)" rx="3"/><text fill="black" font-size="16" font-weight="normal" transform="translate(8, 8)" alignment-baseline="middle" font-family="Arial"><tspan x="0" dy="16" font-family="Arial" font-size="16" font-weight="normal">Confirm</tspan></text></g><g transform="translate(703.5751953125, 0)"><rect width="72.0390625" height="34" stroke="black" fill="white" stroke-width="2" transform="translate(0, 0)" rx="3"/><text fill="black" font-size="16" font-weight="normal" transform="translate(8, 8)" alignment-baseline="middle" font-family="Arial"><tspan x="0" dy="16" font-family="Arial" font-size="16" font-weight="normal">Takeout</tspan></text></g><path d="M 24.890625,74 L 156.892578125 74" fill="none" stroke="black" stroke-dasharray="none" stroke-width="2" marker-end="url(#arrow)"/><path d="M 156.892578125,126 L 293.0302734375 126" fill="none" stroke="black" stroke-dasharray="none" stroke-width="2" marker-end="url(#arrow)"/><path d="M 293.0302734375,178 L 402.7060546875 178" fill="none" stroke="black" stroke-dasharray="none" stroke-width="2" marker-end="url(#arrow)"/><path d="M 156.892578125,214 L 402.7060546875 214" fill="none" stroke="black" stroke-dasharray="none" stroke-width="2" marker-end="url(#arrow)"/><path d="M 402.7060546875,266 L 582.443359375 266" fill="none" stroke="black" stroke-dasharray="none" stroke-width="2" marker-end="url(#arrow)"/><path d="M 582.443359375,302 L 739.5947265625 302" fill="none" stroke="black" stroke-dasharray="none" stroke-width="2" marker-end="url(#arrow)"/><path d="M 24.890625,34 L 24.890625 322" fill="none" stroke="black" stroke-dasharray="none" stroke-width="2"/><path d="M 156.892578125,34 L 156.892578125 322" fill="none" stroke="black" stroke-dasharray="none" stroke-width="2"/><path d="M 293.0302734375,34 L 293.0302734375 322" fill="none" stroke="black" stroke-dasharray="none" stroke-width="2"/><path d="M 402.7060546875,34 L 402.7060546875 322" fill="none" stroke="black" stroke-dasharray="none" stroke-width="2"/><path d="M 582.443359375,34 L 582.443359375 322" fill="none" stroke="black" stroke-dasharray="none" stroke-width="2"/><path d="M 739.5947265625,34 L 739.5947265625 322" fill="none" stroke="black" stroke-dasharray="none" stroke-width="2"/><g transform="translate(48.890625, 46)"><rect width="84.001953125" height="24" stroke="none" fill="white" stroke-width="0" transform="translate(0, 0)" rx="2"/><text fill="black" font-size="14" font-weight="normal" transform="translate(4, 4)" alignment-baseline="middle" font-family="Arial"><tspan x="0" dy="14" font-family="Arial" font-size="14" font-weight="normal">Views menu</tspan></text></g><g transform="translate(180.892578125, 82)"><rect width="88.1376953125" height="40" stroke="none" fill="white" stroke-width="0" transform="translate(0, 0)" rx="2"/><text fill="black" font-size="14" font-weight="normal" transform="translate(4, 4)" alignment-baseline="middle" font-family="Arial"><tspan x="0" dy="14" font-family="Arial" font-size="14" font-weight="normal">Select items </tspan><tspan x="0" dy="14" font-family="Arial" font-size="14" font-weight="normal">from menu</tspan></text></g><g transform="translate(317.0302734375, 134)"><rect width="61.67578125" height="40" stroke="none" fill="white" stroke-width="0" transform="translate(0, 0)" rx="2"/><text fill="black" font-size="14" font-weight="normal" transform="translate(4, 4)" alignment-baseline="middle" font-family="Arial"><tspan x="0" dy="14" font-family="Arial" font-size="14" font-weight="normal">Order is </tspan><tspan x="0" dy="14" font-family="Arial" font-size="14" font-weight="normal">verified</tspan></text></g><g transform="translate(226.39599609375, 186)"><rect width="106.806640625" height="24" stroke="none" fill="white" stroke-width="0" transform="translate(0, 0)" rx="2"/><text fill="black" font-size="14" font-weight="normal" transform="translate(4, 4)" alignment-baseline="middle" font-family="Arial"><tspan x="0" dy="14" font-family="Arial" font-size="14" font-weight="normal">Order is verified</tspan></text></g><g transform="translate(426.7060546875, 222)"><rect width="131.7373046875" height="40" stroke="none" fill="white" stroke-width="0" transform="translate(0, 0)" rx="2"/><text fill="black" font-size="14" font-weight="normal" transform="translate(4, 4)" alignment-baseline="middle" font-family="Arial"><tspan x="0" dy="14" font-family="Arial" font-size="14" font-weight="normal">Send text message </tspan><tspan x="0" dy="14" font-family="Arial" font-size="14" font-weight="normal">to confirm order</tspan></text></g><g transform="translate(606.443359375, 274)"><rect width="109.1513671875" height="24" stroke="none" fill="white" stroke-width="0" transform="translate(0, 0)" rx="2"/><text fill="black" font-size="14" font-weight="normal" transform="translate(4, 4)" alignment-baseline="middle" font-family="Arial"><tspan x="0" dy="14" font-family="Arial" font-size="14" font-weight="normal">Confirmed order</tspan></text></g></svg>